<svg xmlns="http://www.w3.org/2000/svg" version="1.1" xmlns:xlink="http://www.w3.org/1999/xlink" xmlns:svgjs="http://svgjs.dev/svgjs" width="2000" height="2000" viewBox="0 0 2000 2000"><g transform="matrix(1,0,0,1,0,0)"><svg viewBox="0 0 280 280" data-background-color="#ffffff" preserveAspectRatio="xMidYMid meet" height="2000" width="2000" xmlns="http://www.w3.org/2000/svg" xmlns:xlink="http://www.w3.org/1999/xlink"><g id="tight-bounds" transform="matrix(1,0,0,1,0,0)"><svg viewBox="0 0 280 280" height="280" width="280"><g><svg viewBox="0 0 280 280" height="280" width="280"><g><svg viewBox="0 0 280 280" height="280" width="280"><g id="textblocktransform"><svg viewBox="0 0 280 280" height="280" width="280" id="textblock"><g><svg viewBox="0 0 280 280" height="280" width="280"><g transform="matrix(1,0,0,1,90.62065928985191,74.00336708925556)"><svg viewBox="0 0 98.75868142029618 131.99326582148888" height="131.99326582148888" width="98.75868142029618"><g id="icon-0"><svg xmlns="http://www.w3.org/2000/svg" xmlns:xlink="http://www.w3.org/1999/xlink" version="1.1" x="0" y="0" viewBox="12.374 0 74.821 100" enable-background="new 0 0 100 100" xml:space="preserve" height="131.99326582148888" width="98.75868142029618" class="icon-xg-0" data-fill-palette-color="accent" id="xg-0"><polygon fill="#530030" points="87.195,87 72.015,58 80.921,58 61.741,29 70.647,29 50.101,0 28.92,29 37.828,29 18.647,58   27.554,58 12.374,87 45,87 45,100 55,100 55,87 " data-fill-palette-color="accent"></polygon></svg></g></svg></g><g id="text-0"><path d="M8.499 86.058l25.932 8.73-2.046 6.076-23.449-0.582c1.864 0.41 3.572 0.813 5.125 1.209 1.553 0.396 3.367 0.944 5.443 1.643v0l10.884 3.664-1.415 4.202-25.932-8.73 2.033-6.038 23.449 0.582c-0.947-0.15-2.269-0.437-3.967-0.862-1.7-0.418-3.398-0.912-5.096-1.483v0l-12.388-4.171z" fill="#530030" data-fill-palette-color="primary"></path><path d="M21.726 73.536c1.299-2.302 3.112-3.637 5.438-4.006 2.332-0.366 5.083 0.347 8.255 2.137v0c3.038 1.715 5.043 3.695 6.014 5.942 0.972 2.246 0.815 4.508-0.471 6.786v0c-1.283 2.273-3.12 3.583-5.51 3.931-2.39 0.348-5.139-0.356-8.247-2.11v0c-3.078-1.738-5.083-3.718-6.015-5.942-0.926-2.22-0.747-4.466 0.536-6.738zM24.935 75.347c-0.556 0.986-0.477 1.982 0.239 2.99 0.718 1.017 2.225 2.173 4.52 3.47v0c2.325 1.312 4.105 2.012 5.341 2.098 1.238 0.095 2.136-0.35 2.692-1.336v0c0.56-0.991 0.479-1.993-0.242-3.004-0.712-1.014-2.231-2.177-4.555-3.489v0c-2.319-1.309-4.093-2.005-5.324-2.088-1.221-0.085-2.111 0.368-2.671 1.359z" fill="#530030" data-fill-palette-color="primary"></path><path d="M35.901 53.041c0.372-0.478 0.777-0.846 1.215-1.104v0l3.202 3.495c-0.428 0.333-0.782 0.678-1.06 1.035v0c-0.614 0.788-0.755 1.678-0.423 2.671 0.323 0.994 1.065 2.142 2.228 3.445v0l9.091 7.082-2.996 3.844-16.526-12.876 2.602-3.34 3.096 1.956c-1.583-2.474-1.726-4.544-0.429-6.208z" fill="#530030" data-fill-palette-color="primary"></path><path d="M59.554 53.808l3.335 0.941c-0.201 1.642-0.919 3.074-2.153 4.297v0c-1.296 1.284-2.648 1.891-4.055 1.823-1.407-0.077-2.741-0.752-4.001-2.025v0l-8.587-8.67-1.745 1.728-2.481-2.504 1.746-1.729-3.261-3.292 3.041-3.841 3.675 3.711 2.817-2.79 2.14 2.842-2.476 2.453 8.586 8.67c0.89 0.899 1.721 0.966 2.492 0.203v0c0.246-0.244 0.428-0.49 0.547-0.739 0.124-0.254 0.25-0.613 0.38-1.078z" fill="#530030" data-fill-palette-color="primary"></path><path d="M60.456 30.648c1.193-0.917 2.464-1.213 3.812-0.89 1.353 0.329 2.585 1.217 3.696 2.663v0l9.457 12.305-3.864 2.97-9.122-11.87c-0.613-0.797-1.159-1.284-1.639-1.46-0.485-0.173-0.937-0.099-1.353 0.221v0c-0.882 0.677-1.115 2.171-0.701 4.481v0l8.927 11.615-3.864 2.97-17.854-23.232 3.548-3.381 6.925 9.011c-0.102-1.215 0.001-2.26 0.31-3.136 0.313-0.871 0.887-1.626 1.722-2.267z" fill="#530030" data-fill-palette-color="primary"></path><path d="M98.647 5.679l4.374-1.646 6.04 26.962-6.188 2.329-10.494-19.578 4.905 21.681-6.084 2.29-13.152-24.286 4.552-1.713 10.59 20.94-5.141-22.99 5-1.882 11.226 20.7z" fill="#530030" data-fill-palette-color="primary"></path><path d="M119.381 6.832c2.609-0.424 4.784 0.156 6.525 1.741 1.743 1.592 2.907 4.184 3.492 7.779v0c0.56 3.443 0.268 6.246-0.878 8.409-1.146 2.163-3.009 3.454-5.592 3.874v0c-2.576 0.419-4.747-0.196-6.512-1.844-1.766-1.649-2.935-4.234-3.508-7.756v0c-0.568-3.489-0.275-6.292 0.878-8.409 1.154-2.11 3.019-3.375 5.595-3.794zM119.973 10.469c-1.117 0.182-1.845 0.867-2.185 2.056-0.345 1.196-0.306 3.095 0.117 5.697v0c0.429 2.635 0.996 4.462 1.701 5.48 0.7 1.026 1.608 1.448 2.726 1.266v0c1.124-0.183 1.855-0.872 2.193-2.066 0.346-1.189 0.305-3.102-0.124-5.737v0c-0.428-2.628-0.994-4.449-1.698-5.46-0.697-1.006-1.607-1.418-2.73-1.236z" fill="#530030" data-fill-palette-color="primary"></path><path d="M142.708 5.295c2.643 0.026 4.687 0.969 6.133 2.828 1.446 1.865 2.151 4.619 2.115 8.26v0c-0.035 3.488-0.801 6.2-2.298 8.136-1.497 1.936-3.554 2.891-6.17 2.865v0c-2.61-0.026-4.644-1.002-6.103-2.927-1.459-1.925-2.171-4.672-2.135-8.241v0c0.035-3.535 0.801-6.247 2.298-8.136 1.497-1.883 3.55-2.811 6.16-2.785zM142.671 8.98c-1.132-0.011-1.966 0.54-2.503 1.653-0.544 1.12-0.829 2.998-0.855 5.634v0c-0.027 2.67 0.221 4.566 0.742 5.69 0.515 1.13 1.338 1.701 2.47 1.712v0c1.138 0.011 1.976-0.543 2.513-1.663 0.544-1.113 0.829-3.004 0.855-5.674v0c0.026-2.663-0.221-4.553-0.742-5.67-0.515-1.11-1.342-1.671-2.48-1.682z" fill="#530030" data-fill-palette-color="primary"></path><path d="M170.187 0l4.704 1.377-5.211 28.872-4.246-0.766 0.194-2.421c-1.581 1.751-3.331 2.453-5.251 2.107v0c-2.129-0.384-3.589-1.632-4.378-3.743-0.783-2.11-0.864-4.881-0.245-8.314v0c0.394-2.182 1.031-4.045 1.912-5.592 0.88-1.539 1.92-2.657 3.122-3.353 1.195-0.698 2.47-0.924 3.826-0.679v0c1.658 0.299 2.896 1.233 3.716 2.801v0zM162.395 25.799c0.596 0.108 1.171-0.005 1.726-0.338 0.559-0.325 1.142-0.836 1.747-1.531v0l1.808-10.014c-0.579-1.552-1.399-2.424-2.461-2.616v0c-2.11-0.381-3.6 1.843-4.472 6.672v0c-0.474 2.627-0.55 4.545-0.226 5.753 0.315 1.214 0.942 1.905 1.878 2.074z" fill="#530030" data-fill-palette-color="primary"></path><path d="M212.92 18.838c1.217 0.688 2.179 1.496 2.885 2.424 0.701 0.924 1.255 2.048 1.661 3.372v0l-3.529 1.331c-0.282-0.894-0.631-1.63-1.045-2.209-0.411-0.584-0.95-1.065-1.617-1.442v0c-1.379-0.78-2.85-0.702-4.412 0.235-1.562 0.937-3.26 3.025-5.092 6.264v0c-1.806 3.193-2.711 5.706-2.715 7.539-0.004 1.833 0.706 3.153 2.132 3.959v0c0.713 0.403 1.415 0.609 2.106 0.618 0.688 0.014 1.557-0.075 2.607-0.27v0l0.742 3.598c-1.205 0.412-2.478 0.595-3.82 0.547-1.336-0.044-2.648-0.431-3.934-1.158v0c-2.689-1.521-4.237-3.773-4.645-6.758-0.399-2.987 0.572-6.549 2.912-10.686v0c1.547-2.735 3.22-4.806 5.017-6.214 1.792-1.411 3.606-2.198 5.442-2.36 1.833-0.157 3.601 0.247 5.305 1.21z" fill="#530030" data-fill-palette-color="primary"></path><path d="M226.918 36.493c2.055 1.661 3.073 3.67 3.053 6.024-0.024 2.36-1.181 4.956-3.471 7.788v0c-2.193 2.713-4.477 4.363-6.853 4.952-2.376 0.588-4.581 0.059-6.616-1.586v0c-2.03-1.641-3.018-3.668-2.966-6.083 0.052-2.415 1.199-5.01 3.442-7.785v0c2.222-2.749 4.507-4.4 6.853-4.951 2.342-0.546 4.528 0.001 6.558 1.641zM224.601 39.358c-0.88-0.711-1.876-0.798-2.988-0.258-1.121 0.54-2.511 1.835-4.168 3.886v0c-1.678 2.076-2.662 3.717-2.951 4.921-0.298 1.206-0.007 2.164 0.873 2.875v0c0.885 0.716 1.886 0.801 3.002 0.257 1.117-0.535 2.515-1.841 4.194-3.916v0c1.674-2.071 2.653-3.706 2.938-4.906 0.286-1.19-0.014-2.143-0.9-2.859z" fill="#530030" data-fill-palette-color="primary"></path><path d="M247.251 49.743c-0.494-0.55-1.004-0.825-1.532-0.825-0.537-0.001-1.111 0.272-1.72 0.819v0l-2.089 1.874 2.674 2.98-2.997 1.938-2.301-2.564-12.969 11.638-3.255-3.627 12.97-11.638-1.741-1.94 2.624-2.354 1.74 1.94 1.97-1.768c1.417-1.272 2.918-1.872 4.503-1.8 1.59 0.067 3.072 0.866 4.446 2.398v0c1.076 1.199 1.822 2.623 2.236 4.272v0l-3.256 1.111c-0.286-0.987-0.72-1.805-1.303-2.454z" fill="#530030" data-fill-palette-color="primary"></path><path d="M256.739 62.113c-0.43-0.601-0.907-0.931-1.432-0.989-0.534-0.06-1.134 0.148-1.8 0.624v0l-2.282 1.633 2.33 3.257-3.192 1.596-2.005-2.802-14.172 10.14-2.836-3.964 14.173-10.139-1.517-2.12 2.867-2.051 1.517 2.12 2.152-1.54c1.549-1.108 3.106-1.539 4.674-1.293 1.573 0.242 2.958 1.199 4.154 2.872v0c0.937 1.31 1.522 2.808 1.753 4.492v0l-3.359 0.746c-0.176-1.012-0.517-1.873-1.025-2.582z" fill="#530030" data-fill-palette-color="primary"></path><path d="M254.96 89.284c-0.204 0.112-0.813 0.401-1.826 0.866v0l-5.202-9.47c-1.848 1.129-2.992 2.187-3.431 3.172-0.442 0.979-0.377 1.989 0.193 3.027v0c0.394 0.718 0.873 1.298 1.435 1.741 0.562 0.443 1.293 0.854 2.193 1.234v0l-1.462 3.104c-2.457-0.754-4.31-2.266-5.556-4.536v0c-1.321-2.404-1.502-4.705-0.544-6.902 0.964-2.2 2.96-4.132 5.988-5.795v0c3.028-1.664 5.76-2.367 8.195-2.11 2.429 0.261 4.261 1.514 5.496 3.761v0c1.183 2.153 1.322 4.26 0.418 6.321-0.898 2.058-2.864 3.92-5.897 5.587zM253.678 84.565l0.245-0.135c1.733-0.952 2.885-1.855 3.457-2.708 0.569-0.859 0.6-1.75 0.093-2.672v0c-0.471-0.858-1.218-1.298-2.241-1.321-1.026-0.029-2.535 0.447-4.526 1.427v0z" fill="#530030" data-fill-palette-color="primary"></path><path d="M261.965 108.621c-0.22 0.078-0.867 0.264-1.942 0.559v0l-3.599-10.188c-2.007 0.815-3.307 1.673-3.899 2.574-0.595 0.895-0.695 1.901-0.3 3.018v0c0.273 0.772 0.651 1.422 1.134 1.951 0.483 0.528 1.138 1.053 1.964 1.573v0l-1.945 2.826c-2.303-1.142-3.885-2.934-4.748-5.376v0c-0.914-2.586-0.72-4.886 0.581-6.899 1.308-2.015 3.59-3.598 6.848-4.749v0c3.258-1.151 6.068-1.402 8.429-0.753 2.355 0.651 3.959 2.185 4.813 4.601v0c0.818 2.316 0.615 4.418-0.611 6.306-1.219 1.885-3.461 3.404-6.725 4.557zM261.465 103.757l0.263-0.093c1.864-0.659 3.148-1.363 3.851-2.112 0.7-0.756 0.875-1.63 0.525-2.622v0c-0.326-0.923-0.992-1.478-1.998-1.667-1.008-0.195-2.574 0.03-4.697 0.675v0z" fill="#530030" data-fill-palette-color="primary"></path><path d="M40.511 188.424l-25.932 8.73-2.046-6.076 19.027-13.718c-1.732 0.801-3.337 1.513-4.813 2.137-1.476 0.623-3.252 1.284-5.328 1.983v0l-10.883 3.664-1.415-4.202 25.932-8.73 2.033 6.038-19.027 13.718c0.845-0.453 2.072-1.024 3.68-1.713 1.606-0.695 3.258-1.329 4.956-1.9v0l12.388-4.171z" fill="#530030" data-fill-palette-color="primary"></path><path d="M40.931 200.881c1.299 2.302 1.506 4.543 0.62 6.726-0.892 2.185-2.923 4.173-6.094 5.963v0c-3.038 1.715-5.769 2.408-8.195 2.08-2.425-0.328-4.281-1.631-5.567-3.909v0c-1.283-2.273-1.456-4.522-0.518-6.749 0.937-2.226 2.96-4.217 6.067-5.971v0c3.078-1.738 5.81-2.431 8.194-2.08 2.379 0.354 4.21 1.668 5.493 3.94zM37.722 202.693c-0.556-0.986-1.451-1.432-2.683-1.341-1.242 0.089-3.01 0.782-5.306 2.078v0c-2.325 1.312-3.843 2.475-4.556 3.489-0.721 1.011-0.804 2.009-0.247 2.995v0c0.56 0.991 1.459 1.439 2.697 1.345 1.236-0.086 3.016-0.785 5.341-2.098v0c2.319-1.309 3.832-2.469 4.538-3.479 0.704-1.001 0.776-1.998 0.216-2.989z" fill="#530030" data-fill-palette-color="primary"></path><path d="M53.234 218.713c0.372 0.478 0.63 0.961 0.774 1.448v0l-4.171 2.25c-0.218-0.497-0.466-0.924-0.745-1.281v0c-0.614-0.788-1.443-1.142-2.487-1.063-1.043 0.07-2.338 0.509-3.885 1.318v0l-9.09 7.083-2.995-3.844 16.527-12.877 2.602 3.34-2.654 2.524c2.786-0.93 4.828-0.563 6.124 1.102z" fill="#530030" data-fill-palette-color="primary"></path><path d="M50.394 240.701l-0.909 3.344c-1.644-0.185-3.083-0.889-4.318-2.111v0c-1.296-1.284-1.917-2.629-1.862-4.038 0.064-1.408 0.726-2.748 1.986-4.02v0l8.586-8.671-1.745-1.728 2.48-2.505 1.746 1.729 3.26-3.293 3.87 3.004-3.675 3.711 2.817 2.789-2.821 2.168-2.476-2.453-8.587 8.671c-0.89 0.899-0.95 1.73-0.179 2.494v0c0.246 0.244 0.494 0.424 0.745 0.54 0.255 0.121 0.616 0.244 1.082 0.369z" fill="#530030" data-fill-palette-color="primary"></path><path d="M73.894 237.125c1.193 0.917 1.807 2.069 1.841 3.455 0.03 1.392-0.51 2.811-1.622 4.257v0l-9.456 12.305-3.864-2.97 9.121-11.869c0.613-0.797 0.942-1.45 0.99-1.96 0.042-0.513-0.146-0.93-0.563-1.251v0c-0.882-0.677-2.385-0.519-4.509 0.477v0l-8.927 11.615-3.864-2.969 17.854-23.232 4.18 2.558-6.925 9.011c1.147-0.411 2.184-0.58 3.11-0.507 0.922 0.079 1.8 0.439 2.634 1.08z" fill="#530030" data-fill-palette-color="primary"></path><path d="M110.544 247.967l4.375 1.647-13.237 24.254-6.187-2.329 5.018-21.639-10.607 19.536-6.084-2.29 6.124-26.931 4.551 1.713-5.843 22.726 11.292-20.675 5 1.881-5.207 22.966z" fill="#530030" data-fill-palette-color="primary"></path><path d="M122.922 256.659c2.609 0.424 4.488 1.664 5.638 3.72 1.148 2.062 1.43 4.89 0.845 8.484v0c-0.56 3.443-1.726 6.009-3.498 7.697-1.772 1.688-3.949 2.322-6.532 1.902v0c-2.576-0.419-4.44-1.69-5.592-3.813-1.152-2.123-1.441-4.946-0.868-8.468v0c0.568-3.489 1.734-6.055 3.498-7.697 1.763-1.635 3.933-2.244 6.509-1.825zM122.331 260.296c-1.117-0.182-2.025 0.237-2.724 1.257-0.706 1.025-1.271 2.839-1.695 5.441v0c-0.429 2.635-0.47 4.547-0.124 5.736 0.338 1.195 1.066 1.883 2.184 2.065v0c1.124 0.183 2.035-0.239 2.735-1.264 0.705-1.018 1.272-2.845 1.701-5.481v0c0.428-2.628 0.468-4.534 0.12-5.717-0.342-1.175-1.074-1.854-2.197-2.037z" fill="#530030" data-fill-palette-color="primary"></path><path d="M142.488 257.911c2.643-0.026 4.706 0.875 6.189 2.705 1.483 1.836 2.243 4.575 2.279 8.216v0c0.035 3.488-0.677 6.215-2.136 8.181-1.458 1.965-3.496 2.961-6.112 2.986v0c-2.61 0.026-4.663-0.909-6.16-2.804-1.497-1.896-2.263-4.628-2.298-8.197v0c-0.035-3.535 0.677-6.262 2.135-8.18 1.459-1.912 3.493-2.881 6.103-2.907zM142.525 261.596c-1.132 0.011-1.955 0.579-2.47 1.702-0.521 1.13-0.769 3.014-0.743 5.65v0c0.027 2.67 0.312 4.561 0.856 5.674 0.537 1.12 1.372 1.674 2.503 1.663v0c1.138-0.011 1.965-0.582 2.48-1.713 0.521-1.124 0.769-3.02 0.742-5.689v0c-0.026-2.663-0.312-4.547-0.855-5.654-0.537-1.1-1.375-1.644-2.513-1.633z" fill="#530030" data-fill-palette-color="primary"></path><path d="M163.301 247.105l4.888-0.354 5.211 28.872-4.245 0.767-0.665-2.336c-0.869 2.193-2.264 3.463-4.184 3.809v0c-2.129 0.384-3.933-0.275-5.41-1.976-1.471-1.703-2.516-4.271-3.136-7.704v0c-0.394-2.182-0.448-4.151-0.163-5.907 0.286-1.75 0.87-3.161 1.753-4.234 0.876-1.071 1.991-1.729 3.347-1.974v0c1.658-0.299 3.144 0.143 4.461 1.326v0zM165.02 274c0.596-0.108 1.096-0.414 1.498-0.92 0.41-0.5 0.778-1.182 1.102-2.045v0l-1.807-10.014c-1.085-1.252-2.158-1.782-3.22-1.591v0c-2.11 0.381-2.729 2.985-1.857 7.814v0c0.474 2.627 1.074 4.45 1.799 5.47 0.72 1.027 1.548 1.456 2.485 1.286z" fill="#530030" data-fill-palette-color="primary"></path><path d="M195.75 236.064c1.217-0.688 2.405-1.096 3.564-1.224 1.153-0.125 2.402-0.02 3.746 0.314v0l-0.678 3.71c-0.912-0.219-1.722-0.299-2.432-0.242-0.713 0.051-1.402 0.265-2.069 0.642v0c-1.379 0.78-2.07 2.081-2.072 3.903-0.002 1.822 0.913 4.352 2.745 7.591v0c1.806 3.193 3.493 5.264 5.062 6.212 1.569 0.948 3.066 1.019 4.492 0.213v0c0.713-0.403 1.251-0.899 1.614-1.487 0.367-0.582 0.738-1.373 1.113-2.373v0l3.465 1.218c-0.267 1.245-0.767 2.43-1.499 3.555-0.727 1.122-1.733 2.047-3.02 2.775v0c-2.689 1.521-5.417 1.687-8.185 0.499-2.765-1.197-5.318-3.864-7.658-8.002v0c-1.547-2.735-2.46-5.236-2.74-7.502-0.286-2.263-0.025-4.223 0.782-5.88 0.81-1.651 2.067-2.959 3.77-3.922z" fill="#530030" data-fill-palette-color="primary"></path><path d="M213.054 231.615c2.055-1.661 4.232-2.236 6.531-1.722 2.303 0.519 4.598 2.194 6.887 5.026v0c2.193 2.713 3.328 5.293 3.405 7.739 0.077 2.446-0.902 4.492-2.937 6.136v0c-2.03 1.641-4.22 2.182-6.57 1.626-2.351-0.557-4.647-2.223-6.89-4.998v0c-2.222-2.749-3.357-5.329-3.405-7.739-0.043-2.405 0.95-4.427 2.979-6.068zM215.37 234.481c-0.88 0.711-1.173 1.667-0.879 2.868 0.293 1.21 1.268 2.84 2.926 4.89v0c1.678 2.076 3.076 3.382 4.193 3.917 1.116 0.544 2.115 0.461 2.995-0.251v0c0.885-0.716 1.179-1.676 0.881-2.882-0.289-1.205-1.272-2.845-2.951-4.921v0c-1.674-2.071-3.068-3.371-4.181-3.901-1.104-0.529-2.098-0.435-2.984 0.28z" fill="#530030" data-fill-palette-color="primary"></path><path d="M223.88 214.545c-0.494 0.55-0.712 1.087-0.655 1.612 0.057 0.534 0.391 1.075 1 1.622v0l2.089 1.874 2.674-2.98 2.25 2.77-2.301 2.564 12.97 11.638-3.255 3.627-12.969-11.638-1.741 1.94-2.624-2.354 1.741-1.94-1.97-1.767c-1.417-1.272-2.176-2.699-2.275-4.283-0.105-1.588 0.53-3.147 1.904-4.678v0c1.076-1.199 2.411-2.094 4.005-2.685v0l1.456 3.118c-0.95 0.391-1.716 0.911-2.299 1.56z" fill="#530030" data-fill-palette-color="primary"></path><path d="M231.202 204.875c-0.43 0.601-0.588 1.159-0.474 1.675 0.116 0.525 0.507 1.025 1.173 1.502v0l2.282 1.633 2.33-3.257 2.541 2.506-2.004 2.802 14.172 10.139-2.836 3.964-14.172-10.14-1.516 2.12-2.867-2.051 1.516-2.12-2.152-1.54c-1.549-1.108-2.46-2.443-2.733-4.005-0.279-1.567 0.18-3.186 1.377-4.86v0c0.937-1.31 2.166-2.347 3.686-3.109v0l1.79 2.938c-0.901 0.493-1.606 1.094-2.113 1.803z" fill="#530030" data-fill-palette-color="primary"></path><path d="M254.098 195.502c0.204 0.112 0.774 0.471 1.711 1.076v0l-5.203 9.47c1.944 0.954 3.45 1.352 4.517 1.194 1.064-0.153 1.881-0.748 2.452-1.787v0c0.394-0.718 0.628-1.433 0.699-2.145 0.072-0.712 0.027-1.55-0.135-2.512v0l3.405-0.432c0.682 2.479 0.399 4.853-0.848 7.123v0c-1.321 2.404-3.165 3.791-5.533 4.161-2.374 0.367-5.075-0.281-8.104-1.945v0c-3.028-1.664-5.087-3.592-6.176-5.785-1.083-2.19-1.008-4.408 0.226-6.655v0c1.183-2.153 2.886-3.401 5.111-3.744 2.218-0.346 4.844 0.314 7.878 1.981zM250.803 199.115l-0.245-0.134c-1.733-0.952-3.113-1.44-4.14-1.466-1.03-0.019-1.798 0.432-2.305 1.355v0c-0.471 0.858-0.442 1.724 0.087 2.6 0.526 0.881 1.737 1.9 3.632 3.054v0z" fill="#530030" data-fill-palette-color="primary"></path><path d="M261.038 176.31c0.22 0.078 0.84 0.339 1.863 0.785v0l-3.599 10.188c2.073 0.626 3.624 0.775 4.651 0.446 1.025-0.323 1.735-1.043 2.129-2.16v0c0.273-0.772 0.387-1.515 0.343-2.23-0.044-0.715-0.224-1.534-0.541-2.457v0l3.29-0.978c1.074 2.335 1.18 4.724 0.318 7.166v0c-0.914 2.586-2.509 4.254-4.786 5.003-2.283 0.747-5.054 0.545-8.312-0.606v0c-3.258-1.151-5.602-2.72-7.032-4.708-1.424-1.986-1.709-4.187-0.855-6.604v0c0.818-2.316 2.297-3.824 4.436-4.522 2.133-0.701 4.831-0.475 8.095 0.677zM258.372 180.41l-0.263-0.093c-1.864-0.659-3.305-0.917-4.323-0.775-1.02 0.148-1.705 0.718-2.055 1.71v0c-0.326 0.923-0.157 1.773 0.508 2.551 0.662 0.785 2.021 1.593 4.078 2.426v0z" fill="#530030" data-fill-palette-color="primary"></path><path d="M2.768 142.629c0-6.298 5.106-11.404 11.404-11.404 6.298 0 11.404 5.106 11.404 11.404 0 6.298-5.106 11.404-11.404 11.404-6.298 0-11.404-5.106-11.404-11.404z" fill="#530030" data-fill-palette-color="primary"></path><path d="M254.424 142.629c0-6.298 5.106-11.404 11.404-11.404 6.298 0 11.404 5.106 11.404 11.404 0 6.298-5.106 11.404-11.404 11.404-6.298 0-11.404-5.106-11.404-11.404z" fill="#530030" data-fill-palette-color="primary"></path></g><g id="text-1"></g></svg></g></svg></g></svg></g><g></g></svg></g><defs></defs></svg><rect width="280" height="280" fill="none" stroke="none" visibility="hidden"></rect></g></svg></g></svg>